<svg xmlns="http://www.w3.org/2000/svg" version="1.1" xmlns:xlink="http://www.w3.org/1999/xlink" viewBox="0 0 5.34232177734375 6.0638756081993925"><g transform="matrix(0.8571428571428571,0,0,0.8571428571428571,0.7631888253348218,4.333718652089168)"><rect width="6.954262571090018" height="6.954262571090018" x="-1.251163878318446" y="-4.995875608199393" fill="#382d5e"></rect><g transform="matrix(1,0,0,1,0,0)" clip-path="url(#SvgjsClipPath98037)"><g clip-path="url(#SvgjsClipPath98032f8781ab0-9f01-46e3-9e36-c942bf8f1f65)"><path d=" M 3.1693092494430286 -0.4968902477675874 C 3.2425319287283476 -0.5368851482290098 3.3128901447727035 -0.5819144064974022 3.3798766249377556 -0.6316533680842222 L 3.225109603949144 -0.8738058499031807 L 3.225109603949144 -0.8738058499031807 L 3.2051057032771664 -0.9011796087174977 L 3.1524638594034573 -0.9811952114055003 L 3.135092050925137 -1.0080425517810792 L 3.159833717545789 -1.028046452453081 C 3.4021556732810505 -1.225627167959296 3.5760393655308027 -1.4945574547015164 3.6567727237134227 -1.7966173730088975 C 3.7372596535974467 -2.0976394824842597 3.720492250486947 -2.4164043987604593 3.608868645788322 -2.707321272023669 C 3.5607243686065324 -2.8335194040550657 3.495546402489808 -2.952540037833465 3.4151466603331664 -3.0610744628548376 C 3.343513719479875 -3.1587374673443493 3.260054631954064 -3.2471475176894926 3.1666771572493717 -3.3242836822232698 L 3.0345461291264377 -3.068970739435891 C 3.100473615632914 -3.009293329661073 3.1594548464103434 -2.942365525874701 3.2103698876645463 -2.8694581511546176 C 3.267018118070412 -2.7877426646406938 3.313343548486546 -2.699335354686231 3.348291518613587 -2.6062489317861894 C 3.4588501537862495 -2.3181658995077754 3.4539471260011867 -1.9985262035199916 3.3346046392064657 -1.7139696781272105 C 3.2213860190854757 -1.441951961969127 3.012106405132441 -1.2210561116104657 2.7465952431373717 -1.093322338856452 L 2.915049143533149 -0.8301131194880225 L 2.967690987406858 -0.7495710983612835 L 2.98927414339506 -0.7164067367208613 L 2.953477689560966 -0.6985085098038089 C 2.930315278256561 -0.6874537225903348 2.9071528669521123 -0.6763989353768594 2.8845168740864566 -0.6663969850408598 C 2.8618808812208005 -0.6563950347048602 2.8366127961614 -0.6463930843688597 2.8139768032957004 -0.6374439709103332 C 2.4057441288705377 -0.4811129046642608 1.952058985660559 -0.4938047228667961 1.55320464252093 -0.6727140063057031 C 1.1537477356828645 -0.8503859618867504 0.841677732976743 -1.1800774037256243 0.6861934739213269 -1.5886820897078402 C 0.6709273391979587 -1.628163472613104 0.6577668782295423 -1.668171273957106 0.64565925413858 -1.7087054937398447 C 0.6361837222413405 -1.7392377631865825 0.62828744566026 -1.770296451072058 0.6209175875179503 -1.8013551389575313 L 0.33770446747751537 -1.7881946779891105 C 0.34665358093602794 -1.7445019475739523 0.3571819497107654 -1.7008092171587914 0.36981599224043277 -1.6565900683048955 C 0.38560854540257183 -1.6007897137987888 0.4040331907583459 -1.5449893592926802 0.4250899283078208 -1.4891890047865735 C 0.6072597182982049 -1.0114297723364727 0.9720562240056578 -0.6257985752334521 1.438971841315043 -0.4174010635183243 C 1.905365672659928 -0.20845850579357128 2.4357713694942147 -0.19387234913062912 2.912943469778197 -0.3768668437355842 C 3.0007719881789328 -0.4105986660634464 3.0860913600309905 -0.45053165041481735 3.1682564125656185 -0.49636382932885237 Z M 2.203331414360907 -4.104962226870031 C 2.4179186345107637 -4.10765645395411 2.6314411077844504 -4.074382535202296 2.8350335408451315 -4.006521978826239 L 2.7050081864771274 -3.7548939651100164 C 2.53635353879703 -3.80609318403616 2.3605783203664994 -3.829909037696109 2.184380350566384 -3.8254340359007575 C 1.9981023202341766 -3.8204367708715554 1.8140342192301566 -3.783765563128002 1.6400636849124646 -3.716991837520964 C 1.3457388925000573 -3.605412504568025 1.089847813211514 -3.411300842993417 0.9030778706808655 -3.157935455582418 C 0.7144017579275086 -2.9043249772116217 0.6022458451611971 -2.6020154729310896 0.5798569492964107 -2.2867129394729155 L 0.5798569492964107 -2.2467051381289136 L 0.6198647506404306 -2.2467051381289136 L 0.7151464880517946 -2.2509164856388075 L 0.7488372681309587 -2.2509164856388075 L 0.7488372681309587 -2.2509164856388075 L 1.0273126222227629 -2.263550528168493 C 1.02119289544355 -2.1826386261067077 1.0234863253184483 -2.101310074389004 1.0341560619263017 -2.0208716279108008 C 1.0460911985843728 -1.9262837739678376 1.0694230380115315 -1.833486685337046 1.1036432958395601 -1.744501947573954 C 1.2147361646081993 -1.4529130961492291 1.4351109585956594 -1.2161093329442014 1.7179736138455084 -1.0843732253979241 C 1.9918821805556461 -0.9559274400728399 2.3042297021231284 -0.93580631737102 2.5923546405873994 -1.0280464524530823 L 2.747121661576055 -0.7858939706341266 C 2.3821876782835085 -0.648908914526531 1.9779505780585496 -0.6613935418615098 1.6221654579953955 -0.8206375875907583 C 1.263310936406431 -0.9808161827445776 0.982976355940787 -1.2772510600612534 0.8430661686648249 -1.6444824442139456 L 0.8430661686648249 -1.6444824442139456 C 0.8251679417477779 -1.6923865221390004 0.8093753885856607 -1.7408170185027907 0.7962149276172443 -1.789773933305319 C 0.7828611912019052 -1.8386467094172771 0.7721419121685391 -1.888201409210887 0.764103402854305 -1.9382239330291124 L 0.7588392184669472 -1.9698090393533247 L 0.7272541121427349 -1.9698090393533247 L 0.6324987931700979 -1.9655976918434304 L 0.5514303536046044 -1.9619127627722714 L 0.311383545540617 -1.9540164861912186 C 0.26239199821680276 -2.375096100913259 0.35341111852508394 -2.800591988533248 0.5703814173991493 -3.1647788952859983 C 0.7914717704923234 -3.5377680988129696 1.1325894971552806 -3.824693020151869 1.5379385077975618 -3.9786218015731842 C 1.7503280788736668 -4.060553723603787 1.9756983320902024 -4.103702142336702 2.2033314143609286 -4.106015063747504 Z M 3.6067629720333705 -3.5227434336270615 C 3.7906956646880015 -3.3349401964997254 3.934042820981964 -3.1113186326811797 4.027897723022824 -2.865773222083458 C 4.170663066038982 -2.494393028624902 4.19421422230025 -2.0877675963015596 4.095279283181196 -1.702388472474996 C 4.000176024991716 -1.3292838917031586 3.795785963503702 -0.9930943197130064 3.5083227239895787 -0.7369370558315942 L 3.355661376755875 -0.9759310270181287 C 3.5903659232831915 -1.19691319562711 3.7550921045518137 -1.4818894892217966 3.8294379716190377 -1.795564536131423 C 3.9068418583883897 -2.1179194547568443 3.884818752001844 -2.456157663677014 3.766267758970613 -2.765753718723453 C 3.7054821594793648 -2.9242258151471736 3.620801321098798 -3.0724616643039004 3.5151661636931393 -3.2053131150687344 C 3.4094050316136952 -3.3377972473724222 3.2838750025126333 -3.453206750789257 3.142988327506174 -3.547485100247693 L 3.109823965865759 -3.5695946746746423 L 3.0908729020712356 -3.5332718024018006 L 3.047180171656061 -3.4490448522039023 L 2.9034679378808916 -3.1710959165508417 C 2.7484075456475097 -3.2762907776856673 2.5711262070921883 -3.3442125913394807 2.385472194163805 -3.3695556679546392 C 2.1866138500201027 -3.396186223182827 1.9842519055966723 -3.3724747610008325 1.7969363796560502 -3.3005948524801076 C 1.6061295816584638 -3.2280557082554298 1.4370530409023985 -3.1079080699689645 1.3057879763145235 -2.951579427597572 C 1.1802899776577997 -2.802213570310519 1.092865362819442 -2.6246549000912696 1.0510014519658948 -2.434110102319237 L 0.764103402854305 -2.4209496413508136 C 0.8058325188951779 -2.669203401210802 0.9097893394165689 -2.9028345832187767 1.066267586689263 -3.1000294273213598 C 1.2314675071501329 -3.3078235338776416 1.4497185040800347 -3.4671467616364615 1.6979697131735314 -3.5611719796548567 C 1.8659396696144694 -3.625924132761149 2.0443696969654273 -3.6592905478757785 2.2243881519103597 -3.65961222769865 C 2.4043672150593585 -3.6593871513142635 2.582783288899197 -3.6262017615800497 2.7508065906472097 -3.5616983980935917 L 2.780812441655219 -3.5501171924413826 L 2.7955521579398606 -3.578543788133171 L 2.839244888355035 -3.6632971567698074 L 2.8660922287306168 -3.7159390006434947 L 2.8660922287306168 -3.7159390006434947 L 2.9861156327626324 -3.9475631136877127 C 3.2186724748328395 -3.847695293519327 3.4294975130970684 -3.703390114656502 3.6067629720333705 -3.522743433627066 Z" fill="#c84449" transform="matrix(1,0,0,1,0,0)" fill-rule="evenodd"></path></g></g><g><path d=" M 0.5805 0.1619999999999998 C 0.5805 0.2024999999999998 0.561 0.24899999999999978 0.54 0.30149999999999977 C 0.5325 0.3194999999999998 0.5265 0.3314999999999998 0.5265 0.34199999999999986 C 0.5265 0.3689999999999998 0.5955 0.4049999999999998 0.6195 0.4049999999999998 C 0.6315000000000001 0.4049999999999998 0.639 0.39449999999999985 0.648 0.3809999999999998 C 0.6855 0.3194999999999998 0.735 0.2234999999999998 0.735 0.17999999999999983 C 0.735 0.10349999999999981 0.5715 -2.220446049250313e-16 0.4485 -2.220446049250313e-16 C 0.225 -2.220446049250313e-16 0 0.5084999999999998 0 0.7709999999999998 C 0 0.9149999999999998 0.20550000000000002 1.0649999999999997 0.3435 1.0649999999999997 C 0.402 1.0649999999999997 0.46950000000000003 1.0514999999999999 0.4965 1.0244999999999997 C 0.543 0.9779999999999998 0.5745 0.9209999999999998 0.6075 0.8684999999999998 C 0.6165 0.8534999999999998 0.624 0.8414999999999998 0.624 0.8294999999999998 C 0.624 0.8114999999999998 0.5640000000000001 0.7649999999999998 0.546 0.7649999999999998 C 0.531 0.7649999999999998 0.5235 0.7739999999999998 0.513 0.7859999999999998 C 0.4425 0.8744999999999998 0.381 0.9539999999999998 0.324 0.9539999999999998 C 0.258 0.9539999999999998 0.183 0.8654999999999998 0.183 0.7799999999999998 C 0.183 0.5714999999999998 0.3615 0.11699999999999977 0.5175 0.11699999999999977 C 0.5505 0.11699999999999977 0.5805 0.14249999999999985 0.5805 0.1619999999999998 M 1.4999853515625001 0.7784999999999997 C 1.4999853515625001 0.7784999999999997 1.5209853515625 0.7439999999999998 1.5209853515625 0.7259999999999998 C 1.5209853515625 0.7079999999999997 1.4879853515625001 0.6839999999999998 1.4669853515625 0.6839999999999998 C 1.4489853515625 0.6839999999999998 1.4354853515625 0.7109999999999999 1.4354853515625 0.7109999999999999 C 1.4354853515625 0.7109999999999999 1.3649853515625 0.8579999999999999 1.2584853515624999 0.8579999999999999 C 1.2434853515625002 0.8579999999999999 1.2314853515625 0.8564999999999998 1.2194853515625 0.8519999999999999 C 1.2674853515625 0.7529999999999999 1.2974853515625 0.6419999999999998 1.2974853515625 0.5624999999999998 C 1.2974853515625 0.4694999999999998 1.1339853515625 0.35999999999999976 1.0184853515625 0.35999999999999976 C 0.8579853515625 0.35999999999999976 0.7094853515625 0.6494999999999997 0.7094853515625 0.8579999999999999 C 0.7094853515625 0.9659999999999999 0.8819853515625 1.0649999999999997 0.9869853515625 1.0649999999999997 C 1.0499853515625 1.0649999999999997 1.1084853515625 1.0199999999999998 1.1579853515625 0.9539999999999998 C 1.1789853515625 0.9554999999999998 1.1999853515625 0.9554999999999998 1.2179853515625 0.9554999999999998 C 1.4084853515625 0.9554999999999998 1.4999853515625001 0.7784999999999997 1.4999853515625001 0.7784999999999997 M 0.8894853515625 0.8939999999999998 C 0.8894853515625 0.7259999999999998 1.0124853515625 0.47099999999999986 1.0889853515625 0.47099999999999986 C 1.1189853515625 0.47099999999999986 1.1594853515625 0.4979999999999998 1.1594853515625 0.5309999999999998 C 1.1594853515625 0.6029999999999998 1.1294853515625 0.7049999999999998 1.0919853515625 0.7904999999999998 C 1.0574853515625 0.7964999999999998 0.9959853515625 0.8579999999999999 0.9959853515625 0.8879999999999998 C 0.9959853515625 0.9014999999999999 1.0034853515625 0.9119999999999998 1.0154853515625 0.9209999999999998 C 0.9944853515625001 0.9464999999999998 0.9734853515625 0.9614999999999998 0.9569853515625 0.9614999999999998 C 0.9269853515625 0.9614999999999998 0.8894853515625 0.9314999999999998 0.8894853515625 0.8939999999999998 M 1.847955322265625 0.5219999999999998 C 1.8254553222656251 0.6224999999999998 1.804455322265625 0.7019999999999997 1.769955322265625 0.7994999999999999 C 1.751955322265625 0.8504999999999998 1.672455322265625 0.9494999999999998 1.6259553222656251 0.9494999999999998 C 1.594455322265625 0.9494999999999998 1.570455322265625 0.9209999999999998 1.570455322265625 0.8744999999999998 C 1.570455322265625 0.7814999999999999 1.682955322265625 0.47999999999999976 1.765455322265625 0.47999999999999976 C 1.801455322265625 0.47999999999999976 1.847955322265625 0.5219999999999998 1.847955322265625 0.5219999999999998 M 1.9589553222656249 1.0649999999999997 C 2.066955322265625 1.0649999999999997 2.1554553222656248 0.9284999999999999 2.237955322265625 0.7784999999999997 C 2.237955322265625 0.7784999999999997 2.257455322265625 0.7439999999999998 2.257455322265625 0.7259999999999998 C 2.257455322265625 0.7079999999999997 2.2259553222656248 0.6839999999999998 2.206455322265625 0.6839999999999998 C 2.186955322265625 0.6839999999999998 2.174955322265625 0.7109999999999999 2.174955322265625 0.7109999999999999 C 2.099955322265625 0.8459999999999999 2.018955322265625 0.9614999999999998 1.973955322265625 0.9614999999999998 C 1.960455322265625 0.9614999999999998 1.933455322265625 0.9389999999999998 1.933455322265625 0.9194999999999998 C 1.933455322265625 0.8474999999999998 1.999455322265625 0.6299999999999999 2.041455322265625 0.47699999999999976 C 2.099955322265625 0.2639999999999998 2.126955322265625 0.19499999999999984 2.126955322265625 0.15749999999999975 C 2.126955322265625 0.13199999999999978 2.033955322265625 0.07499999999999984 2.015955322265625 0.07499999999999984 C 1.993455322265625 0.07499999999999984 1.973955322265625 0.0854999999999998 1.9664553222656251 0.10799999999999976 C 1.9439553222656252 0.17849999999999977 1.876455322265625 0.42149999999999976 1.876455322265625 0.42149999999999976 C 1.876455322265625 0.42149999999999976 1.802955322265625 0.35999999999999976 1.7204553222656251 0.35999999999999976 C 1.562955322265625 0.35999999999999976 1.396455322265625 0.7004999999999998 1.396455322265625 0.8984999999999999 C 1.396455322265625 0.9614999999999998 1.499955322265625 1.0649999999999997 1.591455322265625 1.0649999999999997 C 1.657455322265625 1.0649999999999997 1.7669553222656251 0.9644999999999998 1.7669553222656251 0.9644999999999998 C 1.787955322265625 0.9959999999999998 1.891455322265625 1.0649999999999997 1.9589553222656249 1.0649999999999997 M 2.3444267578125 0.7259999999999998 C 2.3579267578125 0.6554999999999997 2.4464267578125 0.47699999999999976 2.5049267578125 0.47699999999999976 C 2.5259267578125 0.47699999999999976 2.5499267578125 0.4934999999999998 2.5499267578125 0.5144999999999998 C 2.5499267578125 0.5549999999999998 2.4884267578125 0.7259999999999998 2.3444267578125 0.7259999999999998 M 2.1449267578125 0.8504999999999998 C 2.1449267578125 0.9674999999999998 2.3264267578125 1.0649999999999997 2.4584267578125 1.0649999999999997 C 2.5799267578125002 1.0649999999999997 2.7104267578125 0.9719999999999999 2.8124267578125 0.7784999999999997 C 2.8124267578125 0.7784999999999997 2.8304267578125 0.7439999999999998 2.8304267578125 0.7259999999999998 C 2.8304267578125 0.7079999999999997 2.7989267578125 0.6839999999999998 2.7794267578125 0.6839999999999998 C 2.7599267578125 0.6839999999999998 2.7479267578125 0.7109999999999999 2.7479267578125 0.7109999999999999 C 2.6504267578125003 0.9029999999999998 2.5319267578125 0.9584999999999998 2.4509267578125 0.9584999999999998 C 2.3864267578125 0.9584999999999998 2.3219267578125 0.9029999999999998 2.3219267578125 0.8669999999999998 C 2.3219267578125 0.8189999999999998 2.3339267578125 0.7934999999999999 2.3339267578125 0.7934999999999999 C 2.3339267578125 0.7934999999999999 2.4074267578125 0.8144999999999998 2.4749267578125 0.8144999999999998 C 2.5724267578125 0.8144999999999998 2.6684267578125 0.5744999999999998 2.6684267578125 0.49949999999999983 C 2.6684267578125 0.43499999999999983 2.5304267578125 0.35999999999999976 2.4539267578125 0.35999999999999976 C 2.3144267578125 0.35999999999999976 2.1449267578125 0.6809999999999998 2.1449267578125 0.8504999999999998 M 2.920455322265625 0.40649999999999986 C 2.920455322265625 0.44399999999999984 3.014955322265625 0.5879999999999999 3.044955322265625 0.5879999999999999 C 3.068955322265625 0.5879999999999999 3.125955322265625 0.5534999999999999 3.125955322265625 0.5324999999999999 C 3.125955322265625 0.5114999999999998 3.088455322265625 0.40949999999999986 3.088455322265625 0.3749999999999998 C 3.088455322265625 0.35999999999999976 3.098955322265625 0.3404999999999998 3.115455322265625 0.3284999999999998 C 3.209955322265625 0.2609999999999998 3.382455322265625 0.16949999999999976 3.382455322265625 0.16949999999999976 C 3.382455322265625 0.16949999999999976 3.338955322265625 0.2084999999999998 3.323955322265625 0.25349999999999984 C 3.292455322265625 0.35699999999999976 3.164955322265625 0.8504999999999998 3.146955322265625 0.8864999999999998 C 3.125955322265625 0.9269999999999998 3.089955322265625 0.9524999999999998 3.068955322265625 0.9524999999999998 C 3.034455322265625 0.9524999999999998 2.926455322265625 0.7964999999999998 2.891955322265625 0.7304999999999998 C 2.887455322265625 0.7214999999999998 2.879955322265625 0.7154999999999998 2.867955322265625 0.7154999999999998 C 2.834955322265625 0.7154999999999998 2.747955322265625 0.7874999999999999 2.747955322265625 0.8114999999999998 C 2.747955322265625 0.8564999999999998 2.969955322265625 1.0649999999999997 3.055455322265625 1.0649999999999997 C 3.136455322265625 1.0649999999999997 3.286455322265625 0.9719999999999999 3.3179553222656253 0.9209999999999998 C 3.341955322265625 0.8804999999999998 3.490455322265625 0.29549999999999976 3.520455322265625 0.2084999999999998 C 3.533955322265625 0.16799999999999982 3.6089553222656248 0.09749999999999981 3.6089553222656248 0.08399999999999985 C 3.6089553222656248 0.06149999999999978 3.535455322265625 -2.220446049250313e-16 3.509955322265625 -2.220446049250313e-16 C 3.493455322265625 -2.220446049250313e-16 3.425955322265625 0.05549999999999977 3.409455322265625 0.06299999999999983 C 3.230955322265625 0.14249999999999985 3.161955322265625 0.17399999999999982 3.071955322265625 0.2174999999999998 C 3.034455322265625 0.23699999999999977 2.920455322265625 0.35399999999999976 2.920455322265625 0.40649999999999986 M 3.8174208984374998 0.23699999999999977 C 3.8204208984375 0.2264999999999998 3.8234208984375 0.20999999999999985 3.8234208984375 0.20099999999999985 C 3.8234208984375 0.17399999999999982 3.7244208984375 0.11699999999999977 3.6944208984375 0.11699999999999977 C 3.6824208984375 0.11699999999999977 3.6689208984375 0.12899999999999978 3.6629208984375 0.1499999999999998 C 3.6524208984375 0.18299999999999983 3.6284208984375 0.2699999999999998 3.5999208984375 0.3749999999999998 L 3.5579208984375 0.3749999999999998 C 3.5339208984375 0.3749999999999998 3.5069208984375 0.43499999999999983 3.5069208984375 0.45299999999999985 C 3.5069208984375 0.46199999999999986 3.5159208984375 0.46799999999999986 3.5234208984375 0.46799999999999986 L 3.5744208984375 0.46799999999999986 C 3.5234208984375 0.6629999999999998 3.4694208984375 0.8789999999999998 3.4694208984375 0.9194999999999998 C 3.4694208984375 0.9944999999999998 3.6104208984375 1.0649999999999997 3.7124208984375002 1.0649999999999997 C 3.8219208984375 1.0649999999999997 3.9104208984375 0.9284999999999999 3.9929208984375 0.7784999999999997 C 3.9929208984375 0.7784999999999997 4.0124208984375 0.7439999999999998 4.0124208984375 0.7259999999999998 C 4.0124208984375 0.7079999999999997 3.9809208984375 0.6839999999999998 3.9614208984375 0.6839999999999998 C 3.9419208984375 0.6839999999999998 3.9284208984375 0.7109999999999999 3.9284208984375 0.7109999999999999 C 3.8549208984375 0.8459999999999999 3.7724208984375 0.9614999999999998 3.7289208984375 0.9614999999999998 C 3.6869208984375 0.9614999999999998 3.6449208984375 0.9254999999999998 3.6449208984375 0.8774999999999998 C 3.6449208984375 0.8429999999999997 3.7004208984374998 0.6374999999999997 3.7499208984375 0.46799999999999986 L 3.8699208984375 0.46799999999999986 C 3.8939208984375 0.46799999999999986 3.9224208984375 0.4079999999999998 3.9224208984375 0.38849999999999985 C 3.9224208984375 0.37949999999999984 3.9134208984375 0.3749999999999998 3.9044208984375 0.3749999999999998 L 3.7754208984375 0.3749999999999998 M 4.432436279296875 0.09599999999999975 C 4.432436279296875 0.08399999999999985 4.426436279296875 0.07799999999999985 4.411436279296875 0.07049999999999979 C 4.370936279296875 0.05099999999999982 4.300436279296875 0.020999999999999908 4.280936279296875 0.020999999999999908 C 4.262936279296875 0.020999999999999908 4.250936279296875 0.032999999999999696 4.247936279296875 0.04349999999999987 L 4.097936279296875 0.7124999999999998 C 4.094936279296875 0.7229999999999999 4.091936279296875 0.7439999999999998 4.091936279296875 0.7514999999999998 C 4.091936279296875 0.7739999999999998 4.147436279296875 0.8009999999999998 4.168436279296875 0.8009999999999998 C 4.181936279296875 0.8009999999999998 4.190936279296875 0.7934999999999999 4.195436279296875 0.7799999999999998 L 4.423436279296875 0.1349999999999998 C 4.429436279296875 0.11699999999999977 4.432436279296875 0.10799999999999976 4.432436279296875 0.09599999999999975 M 3.988436279296875 0.9944999999999998 C 3.988436279296875 1.0274999999999999 4.043936279296875 1.0679999999999998 4.078436279296875 1.0679999999999998 C 4.135436279296875 1.0679999999999998 4.171436279296875 0.9779999999999998 4.171436279296875 0.9269999999999998 C 4.171436279296875 0.8939999999999998 4.115936279296875 0.8534999999999998 4.081436279296875 0.8534999999999998 C 4.024436279296875 0.8534999999999998 3.988436279296875 0.9434999999999998 3.988436279296875 0.9944999999999998" fill="#ffffff" fill-rule="nonzero"></path></g><g></g></g><defs><clipPath id="SvgjsClipPath98037"><path d=" M 0.2982230845721787 -4.105488645308768 h 3.8554886453087676 v 3.8554886453087676 h -3.8554886453087676 Z"></path></clipPath><clipPath id="SvgjsClipPath98032f8781ab0-9f01-46e3-9e36-c942bf8f1f65"><path d=" M 0.2982230845721787 -4.105488645308768 L 4.153711729880946 -4.105488645308768 L 4.153711729880946 -0.25 L 0.2982230845721787 -0.25 Z"></path></clipPath></defs></svg>